<svg width="800" height="800" viewBox="0 0 800 800" fill="none" xmlns="http://www.w3.org/2000/svg">
<path d="M400 0C179.095 0 0 179.095 0 400C0 620.905 179.095 800 400 800C620.905 800 800 620.905 800 400C800 179.095 620.905 0 400 0ZM399.613 544.113H178.193C172.33 544.113 167.563 539.346 167.563 533.419V265.808C167.563 259.881 172.33 255.114 178.193 255.114H281.656C346.271 255.114 384.861 289.902 384.861 348.204C384.861 386.987 365.341 417.459 333.967 429.763L407.666 526.333C409.341 528.201 410.372 530.713 410.372 533.419C410.243 539.346 405.476 544.113 399.613 544.113ZM554.421 544.113H447.802C441.939 544.113 437.107 539.346 437.107 533.419V265.808C437.107 259.881 441.875 255.114 447.802 255.114H546.69C620.841 255.114 636.431 298.792 636.431 335.384C636.431 356.579 630.826 373.393 619.617 385.763C646.803 396.972 661.491 422.29 661.491 458.882C661.491 512.289 621.42 544.113 554.421 544.113Z" fill="#E41421"/>
</svg>
